<?xml version="1.0" encoding="UTF-8"?><svg id="logo_eng" xmlns="http://www.w3.org/2000/svg" viewBox="0 0 2000 2000"><g id="darkblue"><path d="M500.02,825.82c-8.26,34.21-98.85,400.14-110.39,442.34-11.55,42.2-27.65,80.68-48.3,115.44-20.65,34.75-48.55,57.88-83.7,69.37l-80.89,22.51c-.49.13-.8-.04-.94-.5-.32-.17-.14-.48.52-.92,31.98-16.77,57.23-43.7,75.72-80.8,18.49-37.1,33.02-76.61,43.6-118.54,10.56-41.92,100.65-406.24,108.88-437.48,8.21-31.24,18.12-49.14,29.71-53.7l92.85-26.28c.48-.14.8.03.94.5.31.17.38.41.21.71-10.55,10.7-19.95,33.15-28.2,67.35Z" fill="#021b8b"/><path d="M718.24,1116.21l-57.61,56c-34.46-33.5-35.7-81.17-54.72-108.74l-3.61.13c-36.97,1.38-72.58-13.69-96.74-40.94l-42.35-47.78,51.98-209.94,43.68,229.13c-21.18-43.61-24.32-32.97-9.42-68.91,14.89-35.93,42.62-72.75,83.19-110.44l63-61.24c.35-.34.72-.34,1.08,0,.35.35.35.7,0,1.05-8.61,15.36-8.61,31.32,0,47.89,8.61,16.58,21,34.28,37.15,53.13,17.58,20.59,33.2,43.01,46.84,67.25,13.64,24.26,18.31,51.03,14,80.34-2.15,13.26-7.36,27.04-15.61,41.35M627.79,962.86c15.08,35.25,45.23,75.89,90.45,121.95,7.54-31.75,4.48-60.53-9.15-86.36-13.65-25.82-29.97-49.54-49-71.18-19.38-22.33-33.03-43.09-40.92-62.28-9.34,30.01-6.46,62.64,8.61,97.87Z" fill="#021b8b"/><path d="M1155.36,1020.74c-33.03-22.68-52.23-49.72-57.61-81.13-5.38-31.4,10.58-65.77,47.92-103.11l73.76-71.7c10.05-8.02,30.24-9.68,60.57-4.97,30.33,4.71,61.02,14.4,92.07,29.05,31.04,14.66,52.85,32.97,65.42,54.96,12.56,21.98,5.92,46.41-19.92,73.28l-59.23,57.57c-.36.35-.72.35-1.08,0-.36-.34-.36-.7,0-1.05,14-20.94,16.33-40.21,7-57.84-9.34-17.62-25.31-32.88-47.92-45.8-22.61-12.91-46.93-23.03-72.96-30.36-26.03-7.33-48.73-10.81-68.11-10.47-10.77,38.39-.72,71.88,30.15,100.49,30.87,28.61,72.5,50.95,124.91,66.99,52.4,16.05,103.01,24.08,151.83,24.08l-73.76,71.7c-151.48,0-525.62,6.25-676.73,6.25l53.77-75.55,369.9-2.4Z" fill="#021b8b"/><path d="M555.48,1451.52c-14.85,1.29-31.94,1.12-51.29-.48-19.36-1.6-37.43-6.29-54.2-14.03-16.78-7.74-30.48-19.51-41.13-35.32-10.64-15.8-14.35-37.26-11.13-64.36,1.94-17.42,6.29-33.71,13.06-48.87,6.77-15.15,15-29.18,24.68-42.1,9.68-12.9,20.47-24.51,32.42-34.84,11.93-10.31,23.71-19.67,35.32-28.07,28.38-19.35,59.67-35.81,93.87-49.36,7.09,3.87,14.83,9.68,23.23,17.42,7.09,7.11,15.64,17.27,25.65,30.48,10,13.23,20.48,30.48,31.45,51.78,13.55,25.16,18.22,48.39,14.03,69.68-4.2,21.29-11.78,39.68-22.74,55.16-12.26,18.07-28.4,34.2-48.39,48.39l-64.84,44.52ZM476.12,1317c1.29,27.1,12.58,47.9,33.87,62.42,21.29,14.52,45.49,21.78,72.58,21.78,12.9,0,24.19-1.29,33.87-3.87,8.38-22.58,9.35-45.32,2.9-68.23-6.46-22.89-15.48-43.87-27.1-62.9-11.61-19.02-23.71-35.16-36.29-48.39-12.58-13.22-20.81-21.78-24.68-25.65-14.85,14.85-27.91,32.75-39.19,53.71-11.3,20.97-16.62,44.68-15.97,71.13Z" fill="#021b8b"/><path d="M988.96,1326.68c0,14.2,1.6,25.81,4.84,34.84,3.22,9.04,7.26,15.97,12.1,20.81,4.84,4.84,10.16,8.08,15.97,9.68,5.81,1.62,11.28,2.42,16.45,2.42s10.96-.64,17.42-1.94c2.57-.64,4.84-1.29,6.77-1.94l-96.78,63.87c-10.33-2.57-19.35-6.77-27.1-12.58-7.11-4.51-13.55-10.65-19.36-18.39-5.81-7.74-8.71-18.06-8.71-30.97,0-21.93.15-42.9.48-62.9.32-19.99.32-38.06,0-54.2-.33-16.12-1.3-29.83-2.9-41.13-1.62-11.28-4.36-19.51-8.23-24.68-5.81-7.74-11.95-13.07-18.39-15.97-6.46-2.9-13.23-4.36-20.32-4.36-9.04,0-17.42,1.79-25.16,5.32-7.74,3.55-14.85,7.26-21.29,11.13,1.94,14.85,2.9,30.82,2.9,47.9v47.9c0,9.68,1.29,20.49,3.87,32.42,2.57,11.95,6.93,23.23,13.07,33.87,6.12,10.65,14.67,19.52,25.65,26.61,10.96,7.11,24.83,10.65,41.61,10.65l-89.04,48.39c-13.55,0-25.49-4.19-35.81-12.58-9.04-7.74-17.42-20.32-25.16-37.74-7.74-17.42-11.61-43.22-11.61-77.42,0-45.8-1.29-79.67-3.87-101.61-2.57-21.93-12.25-33.22-29.03-33.87l79.36-51.29c7.09,1.94,12.73,7.74,16.94,17.42,4.19,9.68,7.26,21.29,9.19,34.84,5.81-4.51,12.73-9.35,20.81-14.52,8.06-5.16,16.6-10,25.65-14.52,9.03-4.51,18.39-8.23,28.07-11.13,9.68-2.9,19.02-4.35,28.07-4.35,13.55,0,26.13,3.72,37.74,11.13,11.61,7.43,19.99,17.59,25.16,30.48,6.44-4.51,13.7-9.51,21.78-15,8.06-5.47,16.6-10.48,25.65-15,9.03-4.51,18.39-8.22,28.07-11.13,9.68-2.91,19.36-4.36,29.03-4.36,9.03,0,17.74,1.94,26.13,5.81,13.55,6.46,23.71,14.85,30.48,25.16,6.77,10.33,11.45,22.74,14.03,37.26,2.57,14.52,3.7,30.97,3.39,49.36-.33,18.39-.48,39.2-.48,62.42,0,30.34,5.16,51.14,15.48,62.42,10.31,11.3,24.83,16.94,43.55,16.94,10.31,0,21.93-1.29,34.84-3.87,12.9-2.57,26.76-6.12,41.61-10.64l-96.78,62.9c-3.24.65-7.11,1.3-11.61,1.94-3.24.65-7.11,1.13-11.61,1.45-4.52.33-9.36.48-14.52.48-8.39,0-17.27-.8-26.61-2.42-9.36-1.6-17.9-4.84-25.65-9.68-7.74-4.84-14.2-11.45-19.36-19.84-5.17-8.38-7.74-19.35-7.74-32.9,0-21.93.15-42.9.48-62.9.32-19.99.32-38.06,0-54.2-.33-16.12-1.3-30-2.9-41.61-1.62-11.61-4.36-19.99-8.23-25.16-5.81-7.74-12.1-13.07-18.87-15.97-6.77-2.9-13.72-4.35-20.81-4.35-8.39,0-16.3,1.62-23.71,4.84-7.42,3.23-14.36,6.77-20.81,10.64,4.51,15.48,6.61,33.56,6.29,54.2-.33,20.65-.48,44.52-.48,71.62Z" fill="#021b8b"/><path d="M1381.14,1451.52c-14.85,1.29-31.94.97-51.29-.97-19.36-1.94-37.43-6.93-54.2-15-16.78-8.06-30.48-20.16-41.13-36.29-10.64-16.12-14.35-37.74-11.13-64.84,3.87-32.25,15.17-60.64,33.87-85.16,18.7-24.51,39.19-45,61.45-61.45,22.26-16.45,43.22-29.19,62.9-38.23,19.67-9.03,32.42-14.52,38.23-16.45v-13.55l77.42-50.32v229.36c0,5.81.97,14.52,2.9,26.13,1.94,11.61,7.09,23.07,15.48,34.36,8.38,11.3,20.96,21.29,37.74,30,16.77,8.71,39.68,13.07,68.71,13.07l-89.03,49.36c-11.61.64-22.91-.64-33.87-3.87-9.04-2.57-18.72-6.93-29.03-13.07-10.33-6.12-19.69-15.32-28.07-27.58l-60.97,44.52ZM1301.78,1314.1c.64,15.48,4.99,29.03,13.07,40.65,8.06,11.61,18.39,21.14,30.97,28.55,12.58,7.43,26.76,12.26,42.58,14.52,15.8,2.27,31.45,1.79,46.94-1.45-10.33-18.7-15.48-43.22-15.48-73.55v-177.1c-7.11,2.58-17.42,8.22-30.97,16.94-13.55,8.71-26.78,20.32-39.68,34.84-12.91,14.52-24.19,31.62-33.87,51.29-9.68,19.69-14.2,41.46-13.55,65.32Z" fill="#021b8b"/><path d="M1803.16,1450.55c-10.33,0-23.23.17-38.71.48-15.48.33-43.46-.32-60.88-1.94-17.42-1.6-23.32-4.84-40.74-9.68-17.42-4.84-33.07-12.1-46.94-21.77-13.88-9.68-25.16-22.41-33.87-38.23-8.71-15.8-12.73-35.64-12.1-59.52,1.3-45.15.33-78.39-2.9-99.68-3.22-21.29-13.22-32.25-30-32.9l79.36-51.29c9.03,3.24,15.64,11.78,19.84,25.65,4.19,13.88,7.26,29.2,9.19,45.97,3.22-1.94,10-6.78,20.32-14.52,10.31-7.74,21.44-15.64,33.39-23.71,11.93-8.06,22.74-15,32.42-20.81,9.68-5.81,15.48-7.74,17.42-5.81,3.87,3.23,8.23,7.74,13.07,13.55,4.84,5.81,10.48,11.61,16.94,17.42,6.44,5.81,13.55,10.98,21.29,15.48,7.74,4.52,16.45,7.11,26.13,7.74l-79.36,50.32c-2.59,0-6.46-1.94-11.61-5.81-4.52-3.22-10.49-7.89-17.9-14.03-7.42-6.12-16.94-15-28.55-26.61-1.94-1.94-4.84-2.42-8.71-1.45-3.87.97-8.08,2.75-12.58,5.32-4.52,2.58-8.71,5.49-12.58,8.71-3.87,3.24-6.77,5.81-8.71,7.74,1.29,12.26,1.77,24.85,1.45,37.74-.33,12.91-.48,25.16-.48,36.78,0,20,4.51,36.62,13.55,49.84,9.03,13.23,20.96,23.71,35.81,31.45,14.83,7.74,31.45,13.23,49.84,16.45,18.39,3.24,36.61,5.32,54.68,6.29,18.06.97,35.47,1.13,52.26.48,16.77-.64,30.64-.97,41.61-.97l-91.94,51.29Z" fill="#021b8b"/></g></svg>